# xmcd
#
# Track frame offsets: 
#        150
#        13380
#        27597
#        39962
#        51117
#        64030
#        73160
#        86325
#        96920
#        111652
#
# Disc length: 1686 seconds
#
# Revision: 0
# Processed by: cddbd v1.5.1PL2 Copyright (c) Steve Scherf et al.
# Submitted via: ExactAudioCopy v0.95b3
#
DISCID=8b06940a
DTITLE=Various Artist - Tejano Conjuntos
DYEAR=1995
DGENRE=Latin
TTITLE0=Los Dos Gilbertos - Traicionera
TTITLE1=Ruben Vela - Ojitos Verdes
TTITLE2=Albert Zamora - Vete de Aqui
TTITLE3=Valerio Longoria - Treinta Copas
TTITLE4=Mingo Saldivar - Pajaro Negro
TTITLE5=Tony De La Rosa - Mejor Solo
TTITLE6=Los Arcos - Una Carta Y Un Clavel
TTITLE7=Ruben Naranjo - Que Bonita Chaparrita
TTITLE8=Henry Zimmerle - Andas Pagando
TTITLE9=Ricky and Joe Martinez - Vengo a Ver Unos Ojos
EXTD=
EXTT0=
EXTT1=
EXTT2=
EXTT3=
EXTT4=
EXTT5=
EXTT6=
EXTT7=
EXTT8=
EXTT9=
PLAYORDER=
